<svg xmlns="http://www.w3.org/2000/svg" xmlns:xlink="http://www.w3.org/1999/xlink" width="3440" zoomAndPan="magnify" viewBox="0 0 2580 1079.999946" height="1440" preserveAspectRatio="xMidYMid meet" version="1.0"><defs><g/><clipPath id="d660a3088f"><rect x="0" width="2166" y="0" height="766"/></clipPath><clipPath id="41d4e6e1e5"><rect x="0" width="387" y="0" height="578"/></clipPath><clipPath id="4614c5883f"><rect x="0" width="1834" y="0" height="110"/></clipPath></defs><g transform="matrix(1, 0, 0, 1, 21, 104)"><g clip-path="url(#d660a3088f)"><g fill="#f5f5f5" fill-opacity="1"><g transform="translate(1.243063, 578.15981)"><g><path d="M 110.726562 -158.03125 L 283.828125 -158.03125 L 283.828125 -226.648438 L 110.726562 -226.648438 L 110.726562 -301.503906 L 303.0625 -301.503906 L 303.0625 -370.121094 L 33.789062 -370.121094 L 33.789062 0 L 308.261719 0 L 308.261719 -68.617188 L 110.726562 -68.617188 Z M 110.726562 -158.03125 "/></g></g></g><g fill="#f5f5f5" fill-opacity="1"><g transform="translate(330.297901, 578.15981)"><g><path d="M 332.695312 -274.992188 C 296.304688 -274.992188 270.832031 -259.398438 253.679688 -226.648438 C 241.722656 -256.796875 215.210938 -274.992188 176.742188 -274.992188 C 144.515625 -274.992188 120.601562 -261.476562 103.96875 -233.925781 L 102.925781 -268.234375 L 31.191406 -268.234375 L 31.191406 0 L 104.488281 0 L 104.488281 -143.472656 C 104.488281 -183.5 123.71875 -208.972656 152.3125 -208.972656 C 177.785156 -208.972656 188.179688 -188.699219 188.179688 -164.789062 L 188.179688 0 L 261.476562 0 L 261.476562 -143.472656 C 261.476562 -183.5 280.710938 -208.972656 309.300781 -208.972656 C 334.773438 -208.972656 345.171875 -188.699219 345.171875 -164.789062 L 345.171875 0 L 418.46875 0 L 418.46875 -179.34375 C 418.46875 -235.484375 388.316406 -274.992188 332.695312 -274.992188 Z M 332.695312 -274.992188 "/></g></g></g><g fill="#f5f5f5" fill-opacity="1"><g transform="translate(779.95415, 578.15981)"><g><path d="M 182.460938 -274.992188 C 144.515625 -274.992188 116.960938 -260.957031 98.769531 -233.40625 L 96.167969 -268.234375 L 31.191406 -268.234375 L 31.191406 106.046875 L 104.488281 106.046875 L 104.488281 -24.953125 C 122.160156 -2.597656 147.113281 8.835938 176.742188 8.835938 C 244.324219 8.835938 292.148438 -48.863281 292.148438 -135.15625 C 292.148438 -223.007812 243.28125 -274.992188 182.460938 -274.992188 Z M 161.148438 -55.621094 C 125.800781 -55.621094 100.847656 -86.8125 100.847656 -135.15625 C 100.847656 -183.5 125.800781 -214.171875 161.148438 -214.171875 C 196.496094 -214.171875 221.449219 -184.023438 221.449219 -135.15625 C 221.449219 -85.773438 196.496094 -55.621094 161.148438 -55.621094 Z M 161.148438 -55.621094 "/></g></g></g><g fill="#f5f5f5" fill-opacity="1"><g transform="translate(1088.735486, 578.15981)"><g><path d="M 268.753906 0 C 260.957031 -13.515625 258.359375 -31.191406 258.359375 -56.140625 L 258.359375 -174.664062 C 258.359375 -240.683594 219.371094 -274.472656 142.433594 -274.472656 C 70.175781 -274.472656 33.269531 -246.921875 28.070312 -188.179688 L 95.128906 -187.140625 C 98.769531 -212.09375 112.804688 -222.488281 142.953125 -222.488281 C 172.066406 -222.488281 188.179688 -213.132812 188.179688 -193.378906 L 188.179688 -173.625 L 94.609375 -154.910156 C 40.546875 -143.996094 12.996094 -116.441406 12.996094 -73.816406 C 12.996094 -24.953125 49.382812 7.796875 106.046875 7.796875 C 141.394531 7.796875 170.503906 -5.199219 188.699219 -27.03125 C 190.257812 -17.675781 192.339844 -9.355469 194.417969 0 Z M 126.839844 -46.265625 C 99.808594 -46.265625 84.734375 -59.261719 84.734375 -78.496094 C 84.734375 -96.167969 97.210938 -107.605469 119.5625 -112.285156 L 188.179688 -126.839844 L 188.179688 -107.085938 C 188.179688 -67.578125 161.667969 -46.265625 126.839844 -46.265625 Z M 126.839844 -46.265625 "/></g></g></g><g fill="#f5f5f5" fill-opacity="1"><g transform="translate(1378.282864, 578.15981)"><g><path d="M 167.386719 -214.171875 L 167.386719 -268.234375 L 117.484375 -266.675781 L 117.484375 -350.886719 L 44.1875 -350.886719 L 44.1875 -267.195312 L 7.796875 -268.234375 L 7.796875 -214.171875 L 44.1875 -215.730469 L 44.1875 -75.375 C 44.1875 -21.3125 65.5 0 119.5625 0 L 167.386719 0 L 167.386719 -58.742188 L 142.953125 -58.742188 C 124.761719 -58.742188 117.484375 -66.019531 117.484375 -84.214844 L 117.484375 -215.730469 Z M 167.386719 -214.171875 "/></g></g></g><g fill="#f5f5f5" fill-opacity="1"><g transform="translate(1556.066105, 578.15981)"><g><path d="M 181.421875 -274.992188 C 147.113281 -274.992188 122.160156 -260.957031 104.488281 -232.367188 L 104.488281 -370.121094 L 31.191406 -370.121094 L 31.191406 0 L 104.488281 0 L 104.488281 -143.472656 C 104.488281 -183.5 125.800781 -208.972656 156.988281 -208.972656 C 182.980469 -208.972656 195.976562 -191.300781 195.976562 -163.226562 L 195.976562 0 L 269.273438 0 L 269.273438 -179.863281 C 269.273438 -238.085938 237.042969 -274.992188 181.421875 -274.992188 Z M 181.421875 -274.992188 "/></g></g></g><g fill="#f5f5f5" fill-opacity="1"><g transform="translate(1856.530096, 578.15981)"><g><path d="M 153.871094 8.835938 C 234.445312 8.835938 291.109375 -51.984375 291.109375 -133.078125 C 291.109375 -214.171875 234.445312 -274.992188 153.871094 -274.992188 C 73.296875 -274.992188 16.632812 -214.171875 16.632812 -133.078125 C 16.632812 -51.984375 73.296875 8.835938 153.871094 8.835938 Z M 153.871094 -48.34375 C 112.804688 -48.34375 87.332031 -81.613281 87.332031 -133.078125 C 87.332031 -184.542969 112.804688 -217.8125 153.871094 -217.8125 C 194.9375 -217.8125 220.410156 -184.542969 220.410156 -133.078125 C 220.410156 -81.613281 194.9375 -48.34375 153.871094 -48.34375 Z M 153.871094 -48.34375 "/></g></g></g></g></g><g transform="matrix(1, 0, 0, 1, 2170, 256)"><g clip-path="url(#41d4e6e1e5)"><g fill="#7a8087" fill-opacity="1"><g transform="translate(1.06304, 436.176235)"><g><path d="M 269.496094 0 L 161.460938 -279.710938 L 120.210938 -279.710938 L 11.785156 0 L 50.675781 0 L 80.925781 -82.105469 L 199.566406 -82.105469 L 229.03125 0 Z M 131.605469 -219.996094 L 141.03125 -249.066406 L 150.070312 -219.996094 L 188.175781 -113.925781 L 92.710938 -113.925781 Z M 131.605469 -219.996094 "/></g></g></g><g fill="#7a8087" fill-opacity="1"><g transform="translate(282.34313, 436.176235)"><g><path d="M 69.925781 0 L 69.925781 -279.710938 L 33.390625 -279.710938 L 33.390625 0 Z M 69.925781 0 "/></g></g></g></g></g><g transform="matrix(1, 0, 0, 1, 403, 804)"><g clip-path="url(#4614c5883f)"><g fill="#c56a1a" fill-opacity="1"><g transform="translate(0.481099, 82.832838)"><g><path d="M 53.152344 -27.167969 L 30.648438 -27.167969 L 30.648438 -23.246094 L 48.710938 -23.246094 L 48.710938 -19.691406 C 47.15625 -9.179688 40.195312 -2.960938 29.832031 -2.960938 C 17.101562 -2.960938 9.84375 -12.585938 9.84375 -26.355469 C 9.84375 -40.640625 17.25 -49.597656 30.203125 -49.597656 C 40.492188 -49.597656 46.710938 -44.417969 48.117188 -36.867188 L 52.410156 -37.160156 C 50.632812 -47.523438 42.046875 -53.667969 29.980469 -53.667969 C 14.433594 -53.667969 5.257812 -42.863281 5.257812 -26.5 C 5.257812 -9.84375 14.953125 1.109375 29.757812 1.109375 C 38.714844 1.109375 45.304688 -2.886719 48.933594 -9.84375 L 49.746094 0 L 53.152344 0 Z M 53.152344 -27.167969 "/></g></g></g><g fill="#c56a1a" fill-opacity="1"><g transform="translate(119.883615, 82.832838)"><g><path d="M 23.171875 -39.234375 C 16.953125 -39.234375 12.660156 -35.753906 10.511719 -29.90625 L 10.511719 -38.199219 L 6.367188 -38.199219 L 6.367188 0 L 10.808594 0 L 10.808594 -21.171875 C 10.957031 -30.574219 16.804688 -34.867188 22.949219 -34.867188 C 23.761719 -34.867188 24.800781 -34.792969 25.984375 -34.644531 L 25.984375 -39.011719 C 25.09375 -39.160156 24.132812 -39.234375 23.171875 -39.234375 Z M 23.171875 -39.234375 "/></g></g></g><g fill="#c56a1a" fill-opacity="1"><g transform="translate(206.497968, 82.832838)"><g><path d="M 21.910156 0.960938 C 32.421875 0.960938 39.828125 -7.179688 39.828125 -19.246094 C 39.828125 -31.460938 32.496094 -39.160156 21.984375 -39.160156 C 11.324219 -39.160156 3.996094 -31.386719 3.996094 -19.097656 C 3.996094 -7.03125 11.179688 0.960938 21.910156 0.960938 Z M 21.910156 -2.8125 C 13.695312 -2.8125 8.4375 -9.105469 8.4375 -19.097656 C 8.4375 -29.09375 13.621094 -35.386719 21.910156 -35.386719 C 30.203125 -35.386719 35.386719 -29.242188 35.386719 -19.246094 C 35.386719 -9.328125 30.203125 -2.8125 21.910156 -2.8125 Z M 21.910156 -2.8125 "/></g></g></g><g fill="#c56a1a" fill-opacity="1"><g transform="translate(309.543395, 82.832838)"><g><path d="M 41.824219 -12.066406 L 39.972656 -4.8125 L 38.273438 -12.066406 L 30.871094 -38.199219 L 26.132812 -38.199219 L 18.804688 -12.066406 L 17.027344 -4.664062 L 15.101562 -12.066406 L 7.253906 -38.199219 L 2.441406 -38.199219 L 14.65625 0 L 19.171875 0 L 26.796875 -26.945312 L 28.5 -34.347656 L 30.128906 -26.945312 L 37.53125 0 L 41.972656 0 L 54.410156 -38.199219 L 49.820312 -38.199219 Z M 41.824219 -12.066406 "/></g></g></g><g fill="#c56a1a" fill-opacity="1"><g transform="translate(425.615316, 82.832838)"><g><path d="M 23.023438 -34.71875 L 23.023438 -38.199219 L 13.398438 -38.050781 L 13.398438 -49.523438 L 8.957031 -49.523438 L 8.957031 -38.050781 L 2.367188 -38.199219 L 2.367188 -34.71875 L 8.957031 -34.867188 L 8.957031 -8.21875 C 8.957031 -2.589844 11.546875 0 17.027344 0 L 22.949219 0 L 22.949219 -3.773438 L 18.210938 -3.773438 C 14.730469 -3.773438 13.398438 -5.183594 13.398438 -8.734375 L 13.398438 -34.867188 Z M 23.023438 -34.71875 "/></g></g></g><g fill="#c56a1a" fill-opacity="1"><g transform="translate(510.083239, 82.832838)"><g><path d="M 24.058594 -39.160156 C 17.839844 -39.160156 13.25 -36.273438 10.808594 -31.386719 L 10.808594 -52.707031 L 6.367188 -52.707031 L 6.367188 0 L 10.808594 0 L 10.808594 -20.949219 C 10.808594 -31.3125 16.65625 -35.238281 23.171875 -35.238281 C 29.609375 -35.238281 32.792969 -31.535156 32.792969 -24.945312 L 32.792969 0 L 37.234375 0 L 37.234375 -25.761719 C 37.234375 -34.199219 32.351562 -39.160156 24.058594 -39.160156 Z M 24.058594 -39.160156 "/></g></g></g><g fill="#c56a1a" fill-opacity="1"><g transform="translate(612.906644, 82.832838)"><g/></g></g><g fill="#c56a1a" fill-opacity="1"><g transform="translate(693.007782, 82.832838)"><g><path d="M 50.484375 0 L 29.019531 -52.707031 L 24.058594 -52.707031 L 2.515625 0 L 7.328125 0 L 13.917969 -16.507812 L 39.011719 -16.507812 L 45.527344 0 Z M 25.390625 -45.15625 L 26.574219 -48.859375 L 27.761719 -45.15625 L 37.457031 -20.429688 L 15.472656 -20.429688 Z M 25.390625 -45.15625 "/></g></g></g><g fill="#c56a1a" fill-opacity="1"><g transform="translate(805.230949, 82.832838)"><g><path d="M 23.171875 -39.234375 C 16.953125 -39.234375 12.660156 -35.753906 10.511719 -29.90625 L 10.511719 -38.199219 L 6.367188 -38.199219 L 6.367188 0 L 10.808594 0 L 10.808594 -21.171875 C 10.957031 -30.574219 16.804688 -34.867188 22.949219 -34.867188 C 23.761719 -34.867188 24.800781 -34.792969 25.984375 -34.644531 L 25.984375 -39.011719 C 25.09375 -39.160156 24.132812 -39.234375 23.171875 -39.234375 Z M 23.171875 -39.234375 "/></g></g></g><g fill="#c56a1a" fill-opacity="1"><g transform="translate(891.845303, 82.832838)"><g><path d="M 21.246094 0.960938 C 30.574219 0.960938 35.976562 -4.589844 37.085938 -13.027344 L 32.941406 -13.027344 C 31.90625 -6.808594 28.128906 -2.8125 21.46875 -2.8125 C 13.175781 -2.8125 8.4375 -8.882812 8.4375 -19.097656 C 8.4375 -29.242188 12.804688 -35.386719 21.46875 -35.386719 C 28.425781 -35.386719 32.054688 -31.386719 32.941406 -26.058594 L 37.160156 -26.058594 C 36.125 -33.609375 30.722656 -39.160156 21.46875 -39.160156 C 10.585938 -39.160156 3.996094 -31.535156 3.996094 -18.949219 C 3.996094 -6.292969 10.660156 0.960938 21.246094 0.960938 Z M 21.246094 0.960938 "/></g></g></g><g fill="#c56a1a" fill-opacity="1"><g transform="translate(991.782159, 82.832838)"><g><path d="M 24.058594 -39.160156 C 17.839844 -39.160156 13.25 -36.273438 10.808594 -31.386719 L 10.808594 -52.707031 L 6.367188 -52.707031 L 6.367188 0 L 10.808594 0 L 10.808594 -20.949219 C 10.808594 -31.3125 16.65625 -35.238281 23.171875 -35.238281 C 29.609375 -35.238281 32.792969 -31.535156 32.792969 -24.945312 L 32.792969 0 L 37.234375 0 L 37.234375 -25.761719 C 37.234375 -34.199219 32.351562 -39.160156 24.058594 -39.160156 Z M 24.058594 -39.160156 "/></g></g></g><g fill="#c56a1a" fill-opacity="1"><g transform="translate(1094.605501, 82.832838)"><g><path d="M 10.957031 -46.710938 L 10.957031 -52.707031 L 6.21875 -52.707031 L 6.21875 -46.710938 Z M 10.808594 0 L 10.808594 -38.199219 L 6.367188 -38.199219 L 6.367188 0 Z M 10.808594 0 "/></g></g></g><g fill="#c56a1a" fill-opacity="1"><g transform="translate(1171.005986, 82.832838)"><g><path d="M 23.023438 -34.71875 L 23.023438 -38.199219 L 13.398438 -38.050781 L 13.398438 -49.523438 L 8.957031 -49.523438 L 8.957031 -38.050781 L 2.367188 -38.199219 L 2.367188 -34.71875 L 8.957031 -34.867188 L 8.957031 -8.21875 C 8.957031 -2.589844 11.546875 0 17.027344 0 L 22.949219 0 L 22.949219 -3.773438 L 18.210938 -3.773438 C 14.730469 -3.773438 13.398438 -5.183594 13.398438 -8.734375 L 13.398438 -34.867188 Z M 23.023438 -34.71875 "/></g></g></g><g fill="#c56a1a" fill-opacity="1"><g transform="translate(1255.473909, 82.832838)"><g><path d="M 38.492188 -20.429688 C 38.492188 -31.609375 31.980469 -39.085938 21.394531 -39.085938 C 10.511719 -39.085938 3.996094 -31.089844 3.996094 -19.246094 C 3.996094 -7.328125 10.585938 0.886719 21.691406 0.886719 C 30.203125 0.886719 35.753906 -3.996094 37.828125 -10.585938 L 33.757812 -11.179688 C 32.128906 -6.589844 28.5 -2.8125 21.765625 -2.8125 C 13.546875 -2.8125 8.4375 -8.511719 8.4375 -18.507812 L 38.492188 -18.507812 Z M 21.46875 -35.386719 C 29.167969 -35.386719 33.683594 -30.203125 34.347656 -21.765625 L 8.511719 -21.765625 C 9.105469 -30.425781 14.066406 -35.386719 21.46875 -35.386719 Z M 21.46875 -35.386719 "/></g></g></g><g fill="#c56a1a" fill-opacity="1"><g transform="translate(1357.187136, 82.832838)"><g><path d="M 21.246094 0.960938 C 30.574219 0.960938 35.976562 -4.589844 37.085938 -13.027344 L 32.941406 -13.027344 C 31.90625 -6.808594 28.128906 -2.8125 21.46875 -2.8125 C 13.175781 -2.8125 8.4375 -8.882812 8.4375 -19.097656 C 8.4375 -29.242188 12.804688 -35.386719 21.46875 -35.386719 C 28.425781 -35.386719 32.054688 -31.386719 32.941406 -26.058594 L 37.160156 -26.058594 C 36.125 -33.609375 30.722656 -39.160156 21.46875 -39.160156 C 10.585938 -39.160156 3.996094 -31.535156 3.996094 -18.949219 C 3.996094 -6.292969 10.660156 0.960938 21.246094 0.960938 Z M 21.246094 0.960938 "/></g></g></g><g fill="#c56a1a" fill-opacity="1"><g transform="translate(1457.123929, 82.832838)"><g><path d="M 23.023438 -34.71875 L 23.023438 -38.199219 L 13.398438 -38.050781 L 13.398438 -49.523438 L 8.957031 -49.523438 L 8.957031 -38.050781 L 2.367188 -38.199219 L 2.367188 -34.71875 L 8.957031 -34.867188 L 8.957031 -8.21875 C 8.957031 -2.589844 11.546875 0 17.027344 0 L 22.949219 0 L 22.949219 -3.773438 L 18.210938 -3.773438 C 14.730469 -3.773438 13.398438 -5.183594 13.398438 -8.734375 L 13.398438 -34.867188 Z M 23.023438 -34.71875 "/></g></g></g><g fill="#c56a1a" fill-opacity="1"><g transform="translate(1541.591852, 82.832838)"><g><path d="M 32.792969 -17.25 C 32.792969 -6.882812 26.945312 -2.960938 20.355469 -2.960938 C 13.992188 -2.960938 10.808594 -6.664062 10.808594 -13.25 L 10.808594 -38.199219 L 6.367188 -38.199219 L 6.367188 -12.4375 C 6.367188 -3.996094 11.179688 0.960938 19.46875 0.960938 C 25.984375 0.960938 30.648438 -2.148438 33.015625 -7.402344 L 33.015625 0 L 37.234375 0 L 37.234375 -38.199219 L 32.792969 -38.199219 Z M 32.792969 -17.25 "/></g></g></g><g fill="#c56a1a" fill-opacity="1"><g transform="translate(1644.415257, 82.832838)"><g><path d="M 23.171875 -39.234375 C 16.953125 -39.234375 12.660156 -35.753906 10.511719 -29.90625 L 10.511719 -38.199219 L 6.367188 -38.199219 L 6.367188 0 L 10.808594 0 L 10.808594 -21.171875 C 10.957031 -30.574219 16.804688 -34.867188 22.949219 -34.867188 C 23.761719 -34.867188 24.800781 -34.792969 25.984375 -34.644531 L 25.984375 -39.011719 C 25.09375 -39.160156 24.132812 -39.234375 23.171875 -39.234375 Z M 23.171875 -39.234375 "/></g></g></g><g fill="#c56a1a" fill-opacity="1"><g transform="translate(1731.029673, 82.832838)"><g><path d="M 38.492188 -20.429688 C 38.492188 -31.609375 31.980469 -39.085938 21.394531 -39.085938 C 10.511719 -39.085938 3.996094 -31.089844 3.996094 -19.246094 C 3.996094 -7.328125 10.585938 0.886719 21.691406 0.886719 C 30.203125 0.886719 35.753906 -3.996094 37.828125 -10.585938 L 33.757812 -11.179688 C 32.128906 -6.589844 28.5 -2.8125 21.765625 -2.8125 C 13.546875 -2.8125 8.4375 -8.511719 8.4375 -18.507812 L 38.492188 -18.507812 Z M 21.46875 -35.386719 C 29.167969 -35.386719 33.683594 -30.203125 34.347656 -21.765625 L 8.511719 -21.765625 C 9.105469 -30.425781 14.066406 -35.386719 21.46875 -35.386719 Z M 21.46875 -35.386719 "/></g></g></g></g></g></svg>