<svg xmlns="http://www.w3.org/2000/svg" xmlns:xlink="http://www.w3.org/1999/xlink" width="3440" zoomAndPan="magnify" viewBox="0 0 2580 1079.999946" height="1440" preserveAspectRatio="xMidYMid meet" version="1.0"><defs><g/><clipPath id="fc1f78b6ab"><path d="M 2149 151 L 2535.480469 151 L 2535.480469 730 L 2149 730 Z M 2149 151 " clip-rule="nonzero"/></clipPath><clipPath id="3d38db1726"><rect x="0" width="387" y="0" height="579"/></clipPath><clipPath id="f14a255a30"><rect x="0" width="2536" y="0" height="766"/></clipPath></defs><g transform="matrix(1, 0, 0, 1, 21, 157)"><g clip-path="url(#f14a255a30)"><g fill="#0b0b0c" fill-opacity="1"><g transform="translate(1.243063, 577.779937)"><g><path d="M 110.726562 -158.03125 L 283.828125 -158.03125 L 283.828125 -226.648438 L 110.726562 -226.648438 L 110.726562 -301.503906 L 303.0625 -301.503906 L 303.0625 -370.121094 L 33.789062 -370.121094 L 33.789062 0 L 308.261719 0 L 308.261719 -68.617188 L 110.726562 -68.617188 Z M 110.726562 -158.03125 "/></g></g></g><g fill="#0b0b0c" fill-opacity="1"><g transform="translate(330.297901, 577.779937)"><g><path d="M 332.695312 -274.992188 C 296.304688 -274.992188 270.832031 -259.398438 253.679688 -226.648438 C 241.722656 -256.796875 215.210938 -274.992188 176.742188 -274.992188 C 144.515625 -274.992188 120.601562 -261.476562 103.96875 -233.925781 L 102.925781 -268.234375 L 31.191406 -268.234375 L 31.191406 0 L 104.488281 0 L 104.488281 -143.472656 C 104.488281 -183.5 123.71875 -208.972656 152.3125 -208.972656 C 177.785156 -208.972656 188.179688 -188.699219 188.179688 -164.789062 L 188.179688 0 L 261.476562 0 L 261.476562 -143.472656 C 261.476562 -183.5 280.710938 -208.972656 309.300781 -208.972656 C 334.773438 -208.972656 345.171875 -188.699219 345.171875 -164.789062 L 345.171875 0 L 418.46875 0 L 418.46875 -179.34375 C 418.46875 -235.484375 388.316406 -274.992188 332.695312 -274.992188 Z M 332.695312 -274.992188 "/></g></g></g><g fill="#0b0b0c" fill-opacity="1"><g transform="translate(779.95415, 577.779937)"><g><path d="M 182.460938 -274.992188 C 144.515625 -274.992188 116.960938 -260.957031 98.769531 -233.40625 L 96.167969 -268.234375 L 31.191406 -268.234375 L 31.191406 106.046875 L 104.488281 106.046875 L 104.488281 -24.953125 C 122.160156 -2.597656 147.113281 8.835938 176.742188 8.835938 C 244.324219 8.835938 292.148438 -48.863281 292.148438 -135.15625 C 292.148438 -223.007812 243.28125 -274.992188 182.460938 -274.992188 Z M 161.148438 -55.621094 C 125.800781 -55.621094 100.847656 -86.8125 100.847656 -135.15625 C 100.847656 -183.5 125.800781 -214.171875 161.148438 -214.171875 C 196.496094 -214.171875 221.449219 -184.023438 221.449219 -135.15625 C 221.449219 -85.773438 196.496094 -55.621094 161.148438 -55.621094 Z M 161.148438 -55.621094 "/></g></g></g><g fill="#0b0b0c" fill-opacity="1"><g transform="translate(1088.735486, 577.779937)"><g><path d="M 268.753906 0 C 260.957031 -13.515625 258.359375 -31.191406 258.359375 -56.140625 L 258.359375 -174.664062 C 258.359375 -240.683594 219.371094 -274.472656 142.433594 -274.472656 C 70.175781 -274.472656 33.269531 -246.921875 28.070312 -188.179688 L 95.128906 -187.140625 C 98.769531 -212.09375 112.804688 -222.488281 142.953125 -222.488281 C 172.066406 -222.488281 188.179688 -213.132812 188.179688 -193.378906 L 188.179688 -173.625 L 94.609375 -154.910156 C 40.546875 -143.996094 12.996094 -116.441406 12.996094 -73.816406 C 12.996094 -24.953125 49.382812 7.796875 106.046875 7.796875 C 141.394531 7.796875 170.503906 -5.199219 188.699219 -27.03125 C 190.257812 -17.675781 192.339844 -9.355469 194.417969 0 Z M 126.839844 -46.265625 C 99.808594 -46.265625 84.734375 -59.261719 84.734375 -78.496094 C 84.734375 -96.167969 97.210938 -107.605469 119.5625 -112.285156 L 188.179688 -126.839844 L 188.179688 -107.085938 C 188.179688 -67.578125 161.667969 -46.265625 126.839844 -46.265625 Z M 126.839844 -46.265625 "/></g></g></g><g fill="#0b0b0c" fill-opacity="1"><g transform="translate(1378.282864, 577.779937)"><g><path d="M 167.386719 -214.171875 L 167.386719 -268.234375 L 117.484375 -266.675781 L 117.484375 -350.886719 L 44.1875 -350.886719 L 44.1875 -267.195312 L 7.796875 -268.234375 L 7.796875 -214.171875 L 44.1875 -215.730469 L 44.1875 -75.375 C 44.1875 -21.3125 65.5 0 119.5625 0 L 167.386719 0 L 167.386719 -58.742188 L 142.953125 -58.742188 C 124.761719 -58.742188 117.484375 -66.019531 117.484375 -84.214844 L 117.484375 -215.730469 Z M 167.386719 -214.171875 "/></g></g></g><g fill="#0b0b0c" fill-opacity="1"><g transform="translate(1556.066105, 577.779937)"><g><path d="M 181.421875 -274.992188 C 147.113281 -274.992188 122.160156 -260.957031 104.488281 -232.367188 L 104.488281 -370.121094 L 31.191406 -370.121094 L 31.191406 0 L 104.488281 0 L 104.488281 -143.472656 C 104.488281 -183.5 125.800781 -208.972656 156.988281 -208.972656 C 182.980469 -208.972656 195.976562 -191.300781 195.976562 -163.226562 L 195.976562 0 L 269.273438 0 L 269.273438 -179.863281 C 269.273438 -238.085938 237.042969 -274.992188 181.421875 -274.992188 Z M 181.421875 -274.992188 "/></g></g></g><g fill="#0b0b0c" fill-opacity="1"><g transform="translate(1856.530096, 577.779937)"><g><path d="M 153.871094 8.835938 C 234.445312 8.835938 291.109375 -51.984375 291.109375 -133.078125 C 291.109375 -214.171875 234.445312 -274.992188 153.871094 -274.992188 C 73.296875 -274.992188 16.632812 -214.171875 16.632812 -133.078125 C 16.632812 -51.984375 73.296875 8.835938 153.871094 8.835938 Z M 153.871094 -48.34375 C 112.804688 -48.34375 87.332031 -81.613281 87.332031 -133.078125 C 87.332031 -184.542969 112.804688 -217.8125 153.871094 -217.8125 C 194.9375 -217.8125 220.410156 -184.542969 220.410156 -133.078125 C 220.410156 -81.613281 194.9375 -48.34375 153.871094 -48.34375 Z M 153.871094 -48.34375 "/></g></g></g><g clip-path="url(#fc1f78b6ab)"><g transform="matrix(1, 0, 0, 1, 2149, 151)"><g clip-path="url(#3d38db1726)"><g fill="#7a8087" fill-opacity="1"><g transform="translate(1.062803, 436.796297)"><g><path d="M 269.496094 0 L 161.460938 -279.710938 L 120.210938 -279.710938 L 11.785156 0 L 50.675781 0 L 80.925781 -82.105469 L 199.566406 -82.105469 L 229.03125 0 Z M 131.605469 -219.996094 L 141.03125 -249.066406 L 150.070312 -219.996094 L 188.175781 -113.925781 L 92.710938 -113.925781 Z M 131.605469 -219.996094 "/></g></g></g><g fill="#7a8087" fill-opacity="1"><g transform="translate(282.34286, 436.796297)"><g><path d="M 69.925781 0 L 69.925781 -279.710938 L 33.390625 -279.710938 L 33.390625 0 Z M 69.925781 0 "/></g></g></g></g></g></g></g></g></svg>